<!-- Generator: Adobe Illustrator 19.0.0, SVG Export Plug-In  -->
<svg version="1.1"
	 xmlns="http://www.w3.org/2000/svg" xmlns:xlink="http://www.w3.org/1999/xlink" xmlns:a="http://ns.adobe.com/AdobeSVGViewerExtensions/3.0/"
	 x="0px" y="0px" width="75px" height="75px" viewBox="0 0 75 75" style="enable-background:new 0 0 75 75;" xml:space="preserve">
<style type="text/css">
	.st0{fill:#FFFFFF;}
</style>
<defs>
</defs>
<path id="XMLID_15_" class="st0" d="M55.5,36c-4.8372,0-9.2592,1.781-12.671,4.7079l-8.5369-8.5369
	C37.2191,28.7592,39,24.3372,39,19.5C39,8.748,30.2524,0,19.5,0S0,8.748,0,19.5S8.7476,39,19.5,39
	c4.8372,0,9.2592-1.781,12.671-4.7079l8.5369,8.5369C37.7809,46.2408,36,50.6628,36,55.5C36,66.252,44.7476,75,55.5,75
	C66.252,75,75,66.252,75,55.5S66.252,36,55.5,36z M19.5,36C10.4019,36,3,28.5977,3,19.5S10.4019,3,19.5,3S36,10.4023,36,19.5
	c0,4.01-1.4409,7.688-3.8283,10.5505L20.5605,18.4395c-0.5859-0.5859-1.5352-0.5859-2.1211,0s-0.5859,1.5352,0,2.1211
	l11.6112,11.6112C27.1882,34.5592,23.5101,36,19.5,36z M55.5,72C46.4019,72,39,64.5977,39,55.5c0-4.01,1.4409-7.688,3.8283-10.5505
	l11.6111,11.6111C54.7324,56.8535,55.1162,57,55.5,57s0.7676-0.1465,1.0605-0.4395c0.5859-0.5859,0.5859-1.5352,0-2.1211
	L44.9493,42.8282C47.8118,40.4408,51.4899,39,55.5,39C64.5977,39,72,46.4023,72,55.5S64.5977,72,55.5,72z"/>
</svg>
